<svg xmlns="http://www.w3.org/2000/svg" viewBox="0 0 100 100" width="32" height="32">
  <!-- Background Circle -->
  <circle cx="50" cy="50" r="48" fill="#6b46c1" />
  
  <!-- Stylized P for Pheromone -->
  <path d="M35 25 L35 75 L45 75 L45 55 L60 55 C67 55 75 48 75 40 C75 32 67 25 60 25 Z" fill="white" />
  <path d="M45 35 L60 35 C62 35 65 37 65 40 C65 43 62 45 60 45 L45 45 Z" fill="#6b46c1" />
  
  <!-- Scent Wave Lines -->
  <path d="M60 30 Q70 35 75 30" stroke="#f687b3" stroke-width="3" fill="none" />
  <path d="M60 40 Q75 45 80 40" stroke="#f687b3" stroke-width="3" fill="none" />
  <path d="M60 50 Q70 55 75 50" stroke="#f687b3" stroke-width="3" fill="none" />
</svg>